<svg fill="#FFFFFF" xmlns="http://www.w3.org/2000/svg"  viewBox="0 0 512 512" width="128px" height="128px"><path d="M 271.06445 21 C 247.88245 21 171.90638 39.539406 130.73438 99.066406 C 99.184375 144.68441 94.471359 203.81602 116.56836 275.16602 C 114.55436 207.32202 128.07159 152.43817 157.05859 111.32617 C 194.43559 58.316172 246.35872 44.735781 265.88672 41.425781 L 271.47266 21 L 271.06445 21 z M 310.63672 25.433594 L 279.55664 47.248047 A 20.77 20.77 0 0 1 270.54688 50.816406 C 255.29987 52.954406 202.62447 64.052844 165.23047 117.08984 C 146.96647 142.98984 135.00488 175.37766 129.67188 213.34766 C 123.37188 258.24766 126.30833 311.49181 138.36133 371.63281 L 340.88672 371.63281 C 338.08672 355.54281 326.84073 307.1687 288.55273 267.4707 C 262.56773 240.5317 255.58859 213.31842 254.30859 195.23242 A 91.479 91.479 0 0 1 257.31836 163.56641 C 251.71836 150.37641 251.87112 132.6748 257.82812 110.7168 A 4.991 4.991 0 0 1 264.08984 107.26758 A 5.01 5.01 0 0 1 267.46094 113.39648 C 261.07394 136.90748 261.83709 154.42753 269.74609 165.51953 C 277.71609 176.69453 292.09877 179.53617 302.75977 179.95117 A 56.318 56.318 0 0 1 345.69922 202.14258 C 347.24822 204.18858 348.87053 206.22427 350.51953 208.19727 C 357.20253 216.19727 363.58014 220.11442 369.61914 219.85742 C 377.01314 219.53342 383.10892 212.94461 386.91992 207.47461 A 36.715 36.715 0 0 1 400.17969 195.69922 C 408.90869 191.24222 411.23747 183.03578 407.10547 171.30078 C 403.74047 161.74978 402.67459 161.33561 398.18359 159.59961 C 389.97059 156.42561 374.68345 150.51684 337.81445 104.21484 A 34.671 34.671 0 0 1 330.80078 88.558594 L 330.09961 84.517578 A 24.622 24.622 0 0 0 309.97656 64.445312 L 302.48828 63.179688 A 7.856 7.856 0 0 1 297.26367 59.962891 A 7.494 7.494 0 0 1 297.70508 50.943359 C 306.91708 39.943359 309.94672 31.343594 310.63672 25.433594 z M 146.38477 256.4043 A 5.0001101 5.0001101 0 0 1 151.50781 261.62891 C 151.33481 265.45091 151.2153 269.42159 151.1543 273.43359 A 5 5 0 0 1 146.1543 278.35742 L 146.07812 278.35742 A 5 5 0 0 1 141.1543 273.28125 C 141.2193 269.16925 141.34058 265.09978 141.51758 261.17578 A 5.0001101 5.0001101 0 0 1 146.38477 256.4043 z M 146.26367 284.94727 A 5.0017953 5.0017953 0 0 1 151.25195 289.81641 C 151.89595 313.76941 154.79834 333.66547 159.65234 347.35547 A 5 5 0 0 1 156.59961 353.73828 A 5 5 0 0 1 150.21875 350.69531 C 144.94875 335.82031 141.93295 315.42798 141.25195 290.08398 A 5.0017953 5.0017953 0 0 1 146.26367 284.94727 z M 125.77344 381.63086 A 4.958 4.958 0 0 0 121.04883 386.53125 A 4.906 4.906 0 0 0 125.94336 391.44141 L 353.13867 391.44141 A 4.9 4.9 0 0 0 358.03125 386.54297 A 4.871 4.871 0 0 0 353.46289 381.63281 L 126.26953 381.63281 A 4.958 4.958 0 0 0 125.77344 381.63086 z M 139.69141 401.44336 L 135.01562 428.40039 L 346.6543 428.40039 L 342.12305 401.44336 L 139.69141 401.44336 z M 125.94727 438.40039 A 4.906 4.906 0 0 0 125.94727 448.21289 L 353.13477 448.21289 A 4.906 4.906 0 0 0 353.13477 438.40039 L 125.94727 438.40039 z M 129.96094 458.21289 L 122.92773 490.18164 L 358.21875 491.00195 L 349.31641 458.21289 L 129.96094 458.21289 z"/></svg>